<svg xmlns="http://www.w3.org/2000/svg" viewBox="0 0 793.91 292.71"><defs><style>.a{fill:#ed1c24;}</style></defs><path class="a" d="M110.45.29q-.32,23.13-.64,46.24-15,1.41-29.93,3L77.75,246.13Q53,259.47,28.62,274.35q.49-109.61,1-219.21Q14.77,56.93-.06,58.87V.29Z" transform="translate(0.06 -0.29)"/><path class="a" d="M122,.29H206.3l-.68,38.77q-16.89,1.09-33.78,2.29c-.27,15.56-.4,23.34-.67,38.91Q187,78,202.81,76.06l-.65,37q-15.85,2.85-31.66,6.23l-.78,45.12q18.57-5.44,37.25-10c-.27,15.43-.41,23.14-.68,38.56a832.21,832.21,0,0,0-87.63,33.08Q120.32,113.19,122,.29Z" transform="translate(0.06 -0.29)"/><path class="a" d="M274.77.29q-1,70.5-2,141,15.57-2.47,31.19-4.29l-.4,34.2A773.77,773.77,0,0,0,221,188.71Q222.58,94.51,224.2.29Z" transform="translate(0.06 -0.29)"/><path class="a" d="M317.77.29h84.32l0,32.84q-17,0-33.91.13c0,12.5-.08,18.75-.13,31.24Q384,64.2,400,64.24V95.46q-16-.08-32,.38l-.15,36.22q18.9-.69,37.81-.48c0,13.14,0,19.71,0,32.85a745.12,745.12,0,0,0-89.64,5Q316.9,84.88,317.77.29Z" transform="translate(0.06 -0.29)"/><path class="a" d="M420,.29h85.64c.19,13.91.28,20.86.47,34.77q-17.61-.62-35.21-1c.12,12.78.19,19.17.31,31.95q15.74.7,31.47,1.77l.43,32.92Q487.32,99.09,471.52,98l.69,70.78q-25.83-2.82-51.69-4Q420.27,82.56,420,.29Z" transform="translate(0.06 -0.29)"/><path class="a" d="M568.46.29,571,150.75q15.5,3.41,30.94,7.51l.7,39.52a785.46,785.46,0,0,0-82.25-21.46q-1.27-88-2.54-176Z" transform="translate(0.06 -0.29)"/><path class="a" d="M662,.29q1.69,110.73,3.4,221.46Q640.32,211,615,202,613.21,101.12,611.46.29Z" transform="translate(0.06 -0.29)"/><path class="a" d="M784.85.29q-8.49,61.07-17.29,122,14.12,85,26.3,170.68C779,282.87,764,273.41,748.81,264.43c-6.34-33.52-11.24-67.55-15.75-101.72-1.12,16.46-2.91,32.74-4.77,49-1.71,15.62-2.56,23.35-4.25,38.65-16-8.54-32.15-16.68-48.43-24.12Q684,165.21,692,104,682.48,52,672.3.29h48.88c1,6.89,2.78,18.51,5.6,34.8,2.16,12.48,4.05,24.23,5.47,35Q737.41,35.2,742.45.29Z" transform="translate(0.06 -0.29)"/></svg>